<svg xmlns="http://www.w3.org/2000/svg" version="1.1" xmlns:xlink="http://www.w3.org/1999/xlink" xmlns:svgjs="http://svgjs.dev/svgjs" width="1000" height="1125" viewBox="0 0 1000 1125"><g transform="matrix(1,0,0,1,0.00007343750002064553,0)"><svg viewBox="0 0 320 360" data-background-color="#444444" preserveAspectRatio="xMidYMid meet" height="1125" width="1000" xmlns="http://www.w3.org/2000/svg" xmlns:xlink="http://www.w3.org/1999/xlink"><g id="tight-bounds" transform="matrix(1,0,0,1,0.000023499999997511622,0)"><svg viewBox="0 0 320 360" height="360" width="320"><g><svg></svg></g><g><svg viewBox="0 0 320 360" height="360" width="320"><g><path transform="translate(-74.99272,-51.79039) scale(4.65793,4.65793)" d="M20.6 59.9l0.8 1-0.4-1.3c-0.1-0.6-0.8 0.1-0.4 0.3M21.5 59.3c0.3 0.5 0.6 1 0.6 1.5 0 0.7 0.6 1 1.1 1.2-0.7-0.8-1.1-3-1.7-2.7M59.9 16.9c1.7 0 3.3-0.2 5.1 0.2 4.4 1.1 8.1 3.3 10.6 6.4l7 11.2c0.3 2.8 0.9 5.9 0.8 9.3 0.7 0 0.6-1 1.4-1.2-0.8 2-1.2 4.5-1.4 7.4-0.5-1.6 0-4 0.1-5.3-0.7 1.1-1.1 0.3-1.1-0.2 0.1-0.8-0.3-0.7-0.6-1-1.1-1-1.8-2.1-2.6-3.8 0.5-1.3 0.6-3.2-1-4.2-0.5-0.3-1.1-0.8-1.4-1.6-0.4-1.1-1.1-2.4-0.9-4.1 0.1-0.5-1.5 1.1-2.4 0.4-3.9-2.7-7.8-5.8-12.5-8.4-2.5 0-4.3-0.9-5.2-2-0.8-1-0.2-2.3 1-2.4 0.7 0 1.5-0.2 2.1 0.2 0.1-0.4 0.5-0.9 1-0.9M50 14.6l0.2 0.1c1 0.2 1.5 1.6 2.6 1.1 0 0.7 0.1 1.4-0.1 1.9-0.3 0.8-1.2 0.8-1.9 0.8-6.7-0.4-10.6 2.4-14.7 4.8-1.1 0.7-2.3 1.2-3.2 2.1-4.3 4-9 7.7-10.1 15.1l-0.9 8.2c-0.1 0.9-1.1 1.8-0.9 2.9l0.7 4.9c-0.7-0.7-1.1 0.2-0.9 0.6 0.1 0.3 0.5 1.3 1.1 0.4 0.8 1.5 1.6 4.4 2.7 5.7 3.4 4 7.8 7.6 11.4 11.2 0.9-0.2 1.6-0.2 1.8-0.8 0.3 0.6-0.3 1.2-0.8 1.3 1.6 1 3.4 1.9 5.8 2.1 3.1 0.2 6 0.7 8.7 1.4 1.4-0.4 2.8-0.6 4.3-0.7 0.5 0 0.8-0.8 1.4-1l0.1-1c0.6 0.9 0.5-0.3 0.1-0.9 0.7 0.6 0.9 1.1 1.2 1.5 0-0.3 0.8-1.4 0.8-0.1l0.2-1.3c0.3-0.2 0.4 1.1 0.7 0.2 0.3-0.9 0.9-0.2 1.5-0.5-0.2 0.4-0.1 1.2 0.6 0.7l0.8-0.7c0.5 1.2 1.3 0.7 1.7 0.5 4.4-2.8 8.8-6.1 13-9.4l-0.1 1.3 0.5-1.6c0.5 0.5 0.9 0.1 1.1-0.2 0.6-1 1.4-2 2.7-2.9-1.6 4.3-3.5 7.7-5.9 10.5l-1 1.2c0 0.7-0.2 1.6-1 1.7-0.4 0.1-1.2-0.2-1.8 0.4-0.3 0.4 0.7 1.2-0.1 0.6-0.7-0.5-1.4 0-2.2 0.2-0.6 0.2 0.4 0.8 0.6 1.2 0.2 0.4 0.4 0.8 0.3 1.3l-1.1-1.2c-1.3 0.7-2.1 2-3.2 3-0.5 0.4-0.3 1.1-0.3 1.7-0.7 0-1.5-0.2-1.9 0.2-0.3 0.4-0.2 1-0.2 1.6-1-0.1-1.1-1.6-2-1.3-0.9 0.2-1.9 0.3-2.7 0.8 0.6 1.2-1 0.5-0.8 0.7-1.5-0.9-2.8-1.6-4.4-1-3.4-1.1-7.6-0.6-10.7-0.2 0-0.5 0.1-1-0.1-1.1-0.2 0.5-0.8 0.3-0.7 0.3-1.9-1.3-3.8-2.1-5.8-3.2-1.8 0.2-3.5-0.7-4-1.2-1.4-1.3-3-0.6-4.3-0.9-2.8-0.7-3.8-3.6-4.1-5.6-0.2-1-1-1.4-1.3-1.3-1.3-4.2-3.3-8-4.9-11.9-0.4-1-0.3-2-0.3-3.1 0.5 0.2 1 0.1 0.9-0.6-0.5-3.3-1.7-5.8-3-8.2 0.7-3.4 0.8-7.4 2.4-10.4 1.4-2.7 4-4.1 5.8-6.4 0.6-0.8 0.6-1.9 1.2-2.6 2-2 4-4.1 6.2-5.9 1-0.8 2.2 0 3.7-0.3 0.5-1.8 2.5-3.4 4.4-2.9 0.8 0.2 2.4-1.9 2.9-2.1 0.8-0.3 0.4 0.8 0.4 1.5 1.9-1.5 4.5-2.3 6.9-3.2" fill="#ffffff" fill-rule="nonzero" stroke="none" stroke-width="1" stroke-linecap="butt" stroke-linejoin="miter" stroke-miterlimit="10" stroke-dasharray="" stroke-dashoffset="0" font-family="none" font-weight="none" font-size="none" text-anchor="none" style="mix-blend-mode: normal" data-fill-palette-color="tertiary"></path></g><g transform="matrix(1,0,0,1,100.06641376445373,90)"><svg viewBox="0 0 119.86717247109254 180" height="180" width="119.86717247109254"><g><svg viewBox="0 0 119.86717247109254 180" height="180" width="119.86717247109254"><g><svg viewBox="0 0 192 288.31913932344213" height="180" width="119.86717247109254"><g transform="matrix(1,0,0,1,0,192.0342728545994)"><svg viewBox="0 0 192 96.28486646884274" height="96.28486646884274" width="192"><g id="textblocktransform"><svg viewBox="0 0 192 96.28486646884274" height="96.28486646884274" width="192" id="textblock"><g><svg viewBox="0 0 192 96.28486646884274" height="96.28486646884274" width="192"><g transform="matrix(1,0,0,1,0,0)"><svg width="192" viewBox="4.65 -33.1 67.39999999999999 33.800000000000004" height="96.28486646884274" data-palette-color="#ffffff"><path d="M10.1-18.6L23.4-32.45 31.5-32.45 10.1-10.55 10.1-18.6ZM12.1-15.2L16.2-19.05 32.4 0 24.8 0 12.1-15.2ZM4.65 0L4.65-32.45 10.6-32.45 10.6 0 4.65 0ZM33.9-3.45L33.9-3.45Q33.9-5.15 35.05-6.3 36.2-7.45 38-7.45L38-7.45Q39.8-7.45 41-6.3 42.2-5.15 42.2-3.45L42.2-3.45Q42.2-1.78 41-0.66 39.8 0.45 38 0.45L38 0.45Q36.2 0.45 35.05-0.68 33.9-1.8 33.9-3.45ZM59.4 0.7L59.4 0.7Q56.02 0.7 53.18-0.48 50.35-1.65 48.58-4.05 46.82-6.45 46.7-10.15L46.7-10.15 52.5-10.15Q52.5-8.28 53.42-7.08 54.35-5.88 55.91-5.29 57.47-4.7 59.35-4.7L59.35-4.7Q61.15-4.7 62.56-5.18 63.97-5.65 64.78-6.54 65.6-7.43 65.6-8.65L65.6-8.65Q65.6-10.28 64.61-11.2 63.62-12.13 61.45-12.9L61.45-12.9 55.05-15.45Q51.3-16.93 49.3-18.88 47.3-20.83 47.3-24.25L47.3-24.25Q47.3-28.2 50.42-30.65 53.55-33.1 59.15-33.1L59.15-33.1Q64.6-33.1 67.57-30.56 70.55-28.03 70.95-23.5L70.95-23.5 65.15-23.5Q64.82-25.43 63.4-26.59 61.97-27.75 59.15-27.75L59.15-27.75Q56.65-27.75 55.2-26.71 53.75-25.68 53.75-24.1L53.75-24.1Q53.75-22.75 54.66-21.96 55.57-21.18 57.5-20.45L57.5-20.45 64.6-17.7Q68.2-16.3 70.12-14.18 72.05-12.05 72.05-8.85L72.05-8.85Q72.05-5.93 70.57-3.79 69.1-1.65 66.27-0.48 63.45 0.7 59.4 0.7Z" opacity="1" transform="matrix(1,0,0,1,0,0)" fill="#ffffff" class="undefined-text-0" data-fill-palette-color="primary" id="text-0"></path></svg></g></svg></g></svg></g></svg></g><g transform="matrix(1,0,0,1,7.007999999999996,0)"><svg viewBox="0 0 177.984 177.984" height="177.984" width="177.984"><g><svg xmlns="http://www.w3.org/2000/svg" xmlns:xlink="http://www.w3.org/1999/xlink" version="1.1" x="0" y="0" viewBox="7 7 50 50" style="enable-background:new 0 0 64 64;" xml:space="preserve" height="177.984" width="177.984" class="icon-icon-0" data-fill-palette-color="accent" id="icon-0"><path d="M48 32c0 8.8-7.2 16-16 16s-16-7.2-16-16 7.2-16 16-16S48 23.2 48 32z" fill="#ffffff" data-fill-palette-color="accent"></path><path d="M32 14c0.6 0 1-0.4 1-1V8c0-0.6-0.4-1-1-1s-1 0.4-1 1v5C31 13.6 31.4 14 32 14z" fill="#ffffff" data-fill-palette-color="accent"></path><path d="M13 33H8c-0.6 0-1-0.4-1-1s0.4-1 1-1h5c0.6 0 1 0.4 1 1S13.6 33 13 33z" fill="#ffffff" data-fill-palette-color="accent"></path><path d="M32 57c-0.6 0-1-0.4-1-1v-5c0-0.6 0.4-1 1-1s1 0.4 1 1v5C33 56.5 32.6 57 32 57z" fill="#ffffff" data-fill-palette-color="accent"></path><path d="M56 33h-5c-0.6 0-1-0.4-1-1s0.4-1 1-1h5c0.6 0 1 0.4 1 1S56.6 33 56 33z" fill="#ffffff" data-fill-palette-color="accent"></path><path d="M45.9 20c-0.3 0-0.5-0.1-0.7-0.3-0.4-0.4-0.4-1 0-1.4l3.6-3.4c0.4-0.4 1-0.4 1.4 0s0.4 1 0 1.4l-3.6 3.4C46.3 19.9 46.1 20 45.9 20z" fill="#ffffff" data-fill-palette-color="accent"></path><path d="M18.6 19.5c-0.3 0-0.5-0.1-0.7-0.3l-3.5-3.5c-0.4-0.4-0.4-1 0-1.4 0.4-0.4 1-0.4 1.4 0l3.5 3.5c0.4 0.4 0.4 1 0 1.4C19.1 19.4 18.8 19.5 18.6 19.5z" fill="#ffffff" data-fill-palette-color="accent"></path><path d="M15.1 50c-0.3 0-0.5-0.1-0.7-0.3-0.4-0.4-0.4-1 0-1.4l3.5-3.5c0.4-0.4 1-0.4 1.4 0 0.4 0.4 0.4 1 0 1.4l-3.5 3.5C15.6 49.9 15.3 50 15.1 50z" fill="#ffffff" data-fill-palette-color="accent"></path><path d="M48.9 50c-0.3 0-0.5-0.1-0.7-0.3l-3.5-3.5c-0.4-0.4-0.4-1 0-1.4 0.4-0.4 1-0.4 1.4 0l3.5 3.5c0.4 0.4 0.4 1 0 1.4C49.5 49.9 49.2 50 48.9 50z" fill="#ffffff" data-fill-palette-color="accent"></path></svg></g></svg></g><g></g></svg></g></svg></g></svg></g></svg></g><defs></defs></svg><rect width="320" height="360" fill="none" stroke="none" visibility="hidden"></rect></g></svg></g></svg>